<?xml version="1.0"?>
<svg xmlns="http://www.w3.org/2000/svg" xmlns:xlink="http://www.w3.org/1999/xlink" xmlns:svgjs="http://svgjs.com/svgjs" version="1.1" width="512" height="512" x="0" y="0" viewBox="0 0 612 612" style="enable-background:new 0 0 512 512" xml:space="preserve" class=""><g>
<g xmlns="http://www.w3.org/2000/svg">
	<g id="_x36__5_">
		<g>
			<path d="M568.286,87.429H218.571c-24.152,0-43.714,19.562-43.714,43.714v153h318.808L379.068,169.546     c-8.546-8.546-8.546-22.382,0-30.906c8.546-8.546,22.382-8.546,30.906,0l150.792,150.792c4.568,4.568,6.514,10.601,6.208,16.568     c0.306,5.967-1.64,12-6.186,16.546L409.996,473.36c-8.524,8.546-22.382,8.546-30.906,0c-8.546-8.546-8.546-22.382,0-30.906     l114.575-114.597H174.857v153c0,24.13,19.562,43.714,43.714,43.714h349.715c24.151,0,43.714-19.562,43.714-43.714V131.143     C612,106.991,592.438,87.429,568.286,87.429z M21.857,284.143C9.792,284.143,0,293.935,0,306     c0,12.065,9.792,21.857,21.857,21.857h153v-43.714H21.857z" fill="#ffffff" data-original="#000000" style="" class=""/>
		</g>
	</g>
</g>
<g xmlns="http://www.w3.org/2000/svg">
</g>
<g xmlns="http://www.w3.org/2000/svg">
</g>
<g xmlns="http://www.w3.org/2000/svg">
</g>
<g xmlns="http://www.w3.org/2000/svg">
</g>
<g xmlns="http://www.w3.org/2000/svg">
</g>
<g xmlns="http://www.w3.org/2000/svg">
</g>
<g xmlns="http://www.w3.org/2000/svg">
</g>
<g xmlns="http://www.w3.org/2000/svg">
</g>
<g xmlns="http://www.w3.org/2000/svg">
</g>
<g xmlns="http://www.w3.org/2000/svg">
</g>
<g xmlns="http://www.w3.org/2000/svg">
</g>
<g xmlns="http://www.w3.org/2000/svg">
</g>
<g xmlns="http://www.w3.org/2000/svg">
</g>
<g xmlns="http://www.w3.org/2000/svg">
</g>
<g xmlns="http://www.w3.org/2000/svg">
</g>
</g></svg>
